<svg width="24" height="24" viewBox="0 0 493.662 493.662" fill="currentColor" xmlns="http://www.w3.org/2000/svg">
  <path d="M329.587 114h-19.756V10.5c0-5.799-4.701-10.5-10.5-10.5h-105c-5.799 0-10.5 4.701-10.5 10.5V114h-19.756c-17.561 0-31.85 14.287-31.85 31.849v315.964c0 17.561 14.288 31.849 31.85 31.849h165.512c17.561 0 31.849-14.287 31.849-31.849V145.85c-.001-17.562-14.288-31.85-31.849-31.85zm-30.781 61.974v70.39H194.857v-70.39h104.949zM288.831 21v133.564h-84V21h84zm51.605 440.813c0 5.982-4.867 10.849-10.849 10.849H164.075c-5.982 0-10.85-4.867-10.85-10.849V145.849c0-5.982 4.867-10.849 10.85-10.849h19.756v19.589c-2.593.13-5.055 1.205-6.899 3.049-1.969 1.969-3.075 4.64-3.075 7.425v91.8c0 5.799 4.701 10.5 10.5 10.5h124.949c5.799 0 10.5-4.701 10.5-10.5v-91.8c0-5.622-4.422-10.198-9.975-10.474V135h19.756c5.982 0 10.849 4.867 10.849 10.85v315.963z"/>
  <path d="M231.148 299.735h-47.05c-5.799 0-10.5 4.701-10.5 10.5s4.701 10.5 10.5 10.5h47.05c5.799 0 10.5-4.701 10.5-10.5s-4.701-10.5-10.5-10.5zM309.564 299.735h-47.049c-5.799 0-10.5 4.701-10.5 10.5s4.701 10.5 10.5 10.5h47.049c5.799 0 10.5-4.701 10.5-10.5s-4.701-10.5-10.5-10.5zM231.148 354.175h-47.05c-5.799 0-10.5 4.701-10.5 10.5s4.701 10.5 10.5 10.5h47.05c5.799 0 10.5-4.701 10.5-10.5s-4.701-10.5-10.5-10.5zM309.564 354.175h-47.049c-5.799 0-10.5 4.701-10.5 10.5s4.701 10.5 10.5 10.5h47.049c5.799 0 10.5-4.701 10.5-10.5s-4.701-10.5-10.5-10.5zM231.148 409.683h-47.05c-5.799 0-10.5 4.701-10.5 10.5s4.701 10.5 10.5 10.5h47.05c5.799 0 10.5-4.701 10.5-10.5s-4.701-10.5-10.5-10.5zM309.564 409.683h-47.049c-5.799 0-10.5 4.701-10.5 10.5s4.701 10.5 10.5 10.5h47.049c5.799 0 10.5-4.701 10.5-10.5s-4.701-10.5-10.5-10.5z"/>
</svg>
