<svg width="24" height="24" viewBox="0 0 512 512" xmlns="http://www.w3.org/2000/svg" fill="currentColor">
  <path d="M426.25 366.99c.23 1.09.36 2.19.41 3.3v22.67c0 23.56-42.98 42.66-96 42.66-52.49 0-95.14-18.72-95.99-41.96v-22.67c.04-1.11.18-2.21.41-3.29 5.88 4.42 13.04 8.5 21.31 12.01 19.36 8.14 45.45 13.33 74.27 13.33 29.93 0 56.96-5.63 76.55-14.34 7.32-3.25 13.69-6.95 19.04-10.99zm-234.25-367L384 106.67v78.72c-15.73-4.04-33.92-6.4-53.33-6.4-29.24 0-55.7 5.38-75.22 14.01-26.73 11.88-40.34 30.06-42.06 48.48l-.12.56v172.71L192 426.67 0 320V106.67L192 0zm234.25 302.99c.23 1.09.36 2.19.41 3.29v22.67c0 23.56-42.98 42.67-96 42.67-52.49 0-95.14-18.72-95.99-41.96v-22.67c.04-1.11.18-2.21.41-3.29 5.88 4.42 13.04 8.5 21.31 12.01 19.36 8.14 45.45 13.33 74.27 13.33 29.93 0 56.96-5.63 76.55-14.33 7.32-3.25 13.69-6.95 19.04-10.99zM128 199.11v144.6l42.67 23.7v-144.6L128 199.11zM42.67 151.7v144.59l42.67 23.71v-144.6L42.67 151.7zM330.67 200.32c52.49 0 95.14 18.72 95.99 41.96v22.67c0 23.56-42.98 42.67-96 42.67-52.49 0-95.14-18.72-95.99-41.96v-22.67l.14-2.34c2.73-22.48 44.6-40.3 95.86-40.3zM275.99 94.07l-125.58 70.09 41.59 23.1 125.87-69.93-41.88-23.26zM192 47.41L66.13 117.33l41.66 23.15 125.58-70.09L192 47.41z"/>
</svg>
