<svg width="24" height="24" viewBox="0 0 48 48" fill="currentColor" xmlns="http://www.w3.org/2000/svg">
  <path d="M43 7h-5a2 2 0 0 0-1.4.6L34 10.2l-2.6-2.6A2 2 0 0 0 30 7H5a2.9 2.9 0 0 0-3 3v28a2.9 2.9 0 0 0 3 3h25a2 2 0 0 0 1.4-.6l2.6-2.6 2.6 2.6A2 2 0 0 0 38 41h5a2.9 2.9 0 0 0 3-3V10a2.9 2.9 0 0 0-3-3ZM42 37h-3.2l-3.4-3.4a1.9 1.9 0 0 0-2.8 0L29.2 37H6V11h23.2l3.4 3.4a1.9 1.9 0 0 0 2.8 0L38.8 11H42Z"/>
  <path d="M34 17a2 2 0 0 0-2 2v2a2 2 0 0 0 4 0v-2a2 2 0 0 0-2-2zM34 25a2 2 0 0 0-2 2v2a2 2 0 0 0 4 0v-2a2 2 0 0 0-2-2z"/>
  <circle cx="14" cy="20" r="2"/>
  <circle cx="22" cy="28" r="2"/>
  <path d="M21.6 17.6l-10 10a1.9 1.9 0 0 0 0 2.8 1.9 1.9 0 0 0 2.8 0l10-10a2 2 0 0 0-2.8-2.8Z"/>
</svg>
